<?xml version="1.0" encoding="UTF-8" standalone="no"?>
<!DOCTYPE svg PUBLIC "-//W3C//DTD SVG 1.1//EN"
 "http://www.w3.org/Graphics/SVG/1.1/DTD/svg11.dtd">
<!-- Generated by graphviz version 2.40.1 (0)
 -->
<!-- Title: packages Pages: 1 -->
<svg width="2241pt" height="1015pt"
 viewBox="0.00 0.00 2241.00 1015.00" xmlns="http://www.w3.org/2000/svg" xmlns:xlink="http://www.w3.org/1999/xlink">
<g id="graph0" class="graph" transform="scale(1 1) rotate(0) translate(4 1011)">
<title>packages</title>
<polygon fill="#ffffff" stroke="transparent" points="-4,4 -4,-1011 2237,-1011 2237,4 -4,4"/>
<g id="clust1" class="cluster">
<title>cluster_alecrabbit</title>
<g id="a_clust1"><a xlink:href="https://packagist.org/packages/alecrabbit/" xlink:title="alecrabbit">
<polygon fill="none" stroke="#000000" points="414,-513 414,-999 1688,-999 1688,-513 414,-513"/>
<text text-anchor="middle" x="1051" y="-983.8" font-family="Times,serif" font-size="14.00" fill="#000000">alecrabbit</text>
</a>
</g>
</g>
<g id="clust2" class="cluster">
<title>cluster_krowinski</title>
<g id="a_clust2"><a xlink:href="https://packagist.org/packages/krowinski/" xlink:title="krowinski">
<polygon fill="none" stroke="#000000" points="1127,-405 1127,-480 1337,-480 1337,-405 1127,-405"/>
<text text-anchor="middle" x="1232" y="-464.8" font-family="Times,serif" font-size="14.00" fill="#000000">krowinski</text>
</a>
</g>
</g>
<g id="clust3" class="cluster">
<title>cluster_nesbot</title>
<g id="a_clust3"><a xlink:href="https://packagist.org/packages/nesbot/" xlink:title="nesbot">
<polygon fill="none" stroke="#000000" points="1538,-297 1538,-372 1684,-372 1684,-297 1538,-297"/>
<text text-anchor="middle" x="1611" y="-356.8" font-family="Times,serif" font-size="14.00" fill="#000000">nesbot</text>
</a>
</g>
</g>
<g id="clust4" class="cluster">
<title>cluster_symfony</title>
<g id="a_clust4"><a xlink:href="https://packagist.org/packages/symfony/" xlink:title="symfony">
<polygon fill="none" stroke="#000000" points="1248,-8 1248,-264 2147,-264 2147,-8 1248,-8"/>
<text text-anchor="middle" x="1697.5" y="-248.8" font-family="Times,serif" font-size="14.00" fill="#000000">symfony</text>
</a>
</g>
</g>
<g id="clust5" class="cluster">
<title>cluster_illuminate</title>
<g id="a_clust5"><a xlink:href="https://packagist.org/packages/illuminate/" xlink:title="illuminate">
<polygon fill="none" stroke="#000000" points="184,-189 184,-675 406,-675 406,-189 184,-189"/>
<text text-anchor="middle" x="295" y="-659.8" font-family="Times,serif" font-size="14.00" fill="#000000">illuminate</text>
</a>
</g>
</g>
<g id="clust6" class="cluster">
<title>cluster_psr</title>
<g id="a_clust6"><a xlink:href="https://packagist.org/packages/psr/" xlink:title="psr">
<polygon fill="none" stroke="#000000" points="20,-81 20,-156 360,-156 360,-81 20,-81"/>
<text text-anchor="middle" x="190" y="-140.8" font-family="Times,serif" font-size="14.00" fill="#000000">psr</text>
</a>
</g>
</g>
<g id="clust7" class="cluster">
<title>cluster_doctrine</title>
<g id="a_clust7"><a xlink:href="https://packagist.org/packages/doctrine/" xlink:title="doctrine">
<polygon fill="none" stroke="#000000" points="20,-297 20,-372 176,-372 176,-297 20,-297"/>
<text text-anchor="middle" x="98" y="-356.8" font-family="Times,serif" font-size="14.00" fill="#000000">doctrine</text>
</a>
</g>
</g>
<g id="clust8" class="cluster">
<title>cluster_react</title>
<g id="a_clust8"><a xlink:href="https://packagist.org/packages/react/" xlink:title="react">
<polygon fill="none" stroke="#000000" points="2001,-600 2001,-891 2183,-891 2183,-600 2001,-600"/>
<text text-anchor="middle" x="2092" y="-875.8" font-family="Times,serif" font-size="14.00" fill="#000000">react</text>
</a>
</g>
</g>
<g id="clust9" class="cluster">
<title>cluster_evenement</title>
<g id="a_clust9"><a xlink:href="https://packagist.org/packages/evenement/" xlink:title="evenement">
<polygon fill="none" stroke="#000000" points="1819,-708 1819,-783 1993,-783 1993,-708 1819,-708"/>
<text text-anchor="middle" x="1906" y="-767.8" font-family="Times,serif" font-size="14.00" fill="#000000">evenement</text>
</a>
</g>
</g>
<!-- alecrabbit__php_helpers -->
<g id="node1" class="node">
<title>alecrabbit__php_helpers</title>
<g id="a_node1"><a xlink:href="https://packagist.org/packages/alecrabbit/php-helpers#0.6.1" xlink:title="php&#45;helpers@0.6.1">
<ellipse fill="none" stroke="#592953" cx="1357" cy="-539" rx="77.9862" ry="18"/>
<text text-anchor="middle" x="1357" y="-535.3" font-family="Times,serif" font-size="14.00" fill="#000000">php&#45;helpers@0.6.1</text>
</a>
</g>
</g>
<!-- krowinski__bcmath_extended -->
<g id="node12" class="node">
<title>krowinski__bcmath_extended</title>
<g id="a_node12"><a xlink:href="https://packagist.org/packages/krowinski/bcmath-extended#5.0.0" xlink:title="bcmath&#45;extended@5.0.0">
<ellipse fill="none" stroke="#d57e16" cx="1232" cy="-431" rx="97.4827" ry="18"/>
<text text-anchor="middle" x="1232" y="-427.3" font-family="Times,serif" font-size="14.00" fill="#000000">bcmath&#45;extended@5.0.0</text>
</a>
</g>
</g>
<!-- alecrabbit__php_helpers&#45;&gt;krowinski__bcmath_extended -->
<g id="edge1" class="edge">
<title>alecrabbit__php_helpers&#45;&gt;krowinski__bcmath_extended</title>
<path fill="none" stroke="#592953" d="M1314.7742,-523.8135C1303.0664,-518.3734 1290.8726,-511.4482 1281,-503 1266.3491,-490.4629 1254.135,-472.5485 1245.5658,-457.7259"/>
<polygon fill="#592953" stroke="#592953" points="1248.6222,-456.0204 1240.712,-448.972 1242.5002,-459.4148 1248.6222,-456.0204"/>
<text text-anchor="middle" x="1312" y="-491.8" font-family="Times,serif" font-size="14.00" fill="#000000">^4.2 || ^5.0</text>
</g>
<!-- nesbot__carbon -->
<g id="node13" class="node">
<title>nesbot__carbon</title>
<g id="a_node13"><a xlink:href="https://packagist.org/packages/nesbot/carbon#2.19.0" xlink:title="carbon@2.19.0">
<ellipse fill="none" stroke="#7b4e80" cx="1611" cy="-323" rx="64.9885" ry="18"/>
<text text-anchor="middle" x="1611" y="-319.3" font-family="Times,serif" font-size="14.00" fill="#000000">carbon@2.19.0</text>
</a>
</g>
</g>
<!-- alecrabbit__php_helpers&#45;&gt;nesbot__carbon -->
<g id="edge2" class="edge">
<title>alecrabbit__php_helpers&#45;&gt;nesbot__carbon</title>
<path fill="none" stroke="#592953" d="M1377.7859,-521.3238C1423.2218,-482.6854 1531.4262,-390.669 1582.8837,-346.9099"/>
<polygon fill="#592953" stroke="#592953" points="1585.2863,-349.4613 1590.6368,-340.3167 1580.7515,-344.1287 1585.2863,-349.4613"/>
<text text-anchor="middle" x="1528.5" y="-427.3" font-family="Times,serif" font-size="14.00" fill="#000000">^2.11</text>
</g>
<!-- symfony__polyfill_php73 -->
<g id="node17" class="node">
<title>symfony__polyfill_php73</title>
<g id="a_node17"><a xlink:href="https://packagist.org/packages/symfony/polyfill-php73#v1.11.0" xlink:title="polyfill&#45;php73@v1.11.0">
<ellipse fill="none" stroke="#e0ffa6" cx="1352" cy="-34" rx="95.5831" ry="18"/>
<text text-anchor="middle" x="1352" y="-30.3" font-family="Times,serif" font-size="14.00" fill="#000000">polyfill&#45;php73@v1.11.0</text>
</a>
</g>
</g>
<!-- alecrabbit__php_helpers&#45;&gt;symfony__polyfill_php73 -->
<g id="edge3" class="edge">
<title>alecrabbit__php_helpers&#45;&gt;symfony__polyfill_php73</title>
<path fill="none" stroke="#592953" d="M1357,-520.655C1357,-499.168 1357,-462.5 1357,-431 1357,-431 1357,-431 1357,-107 1357,-92.2652 1355.9735,-75.8964 1354.8508,-62.3993"/>
<polygon fill="#592953" stroke="#592953" points="1358.3225,-61.9259 1353.9474,-52.2766 1351.3502,-62.5481 1358.3225,-61.9259"/>
<text text-anchor="middle" x="1372.5" y="-275.8" font-family="Times,serif" font-size="14.00" fill="#000000">^1.10</text>
</g>
<!-- alecrabbit__php_traits -->
<g id="node2" class="node">
<title>alecrabbit__php_traits</title>
<g id="a_node2"><a xlink:href="https://packagist.org/packages/alecrabbit/php-traits#0.3.2" xlink:title="php&#45;traits@0.3.2">
<ellipse fill="none" stroke="#e0784e" cx="1051" cy="-734" rx="70.3881" ry="18"/>
<text text-anchor="middle" x="1051" y="-730.3" font-family="Times,serif" font-size="14.00" fill="#000000">php&#45;traits@0.3.2</text>
</a>
</g>
</g>
<!-- alecrabbit__php_reports -->
<g id="node3" class="node">
<title>alecrabbit__php_reports</title>
<g id="a_node3"><a xlink:href="https://packagist.org/packages/alecrabbit/php-reports#0.2.2" xlink:title="php&#45;reports@0.2.2">
<ellipse fill="none" stroke="#12a9d3" cx="499" cy="-734" rx="77.1866" ry="18"/>
<text text-anchor="middle" x="499" y="-730.3" font-family="Times,serif" font-size="14.00" fill="#000000">php&#45;reports@0.2.2</text>
</a>
</g>
</g>
<!-- illuminate__container -->
<g id="node20" class="node">
<title>illuminate__container</title>
<g id="a_node20"><a xlink:href="https://packagist.org/packages/illuminate/container#v5.8.20" xlink:title="container@v5.8.20">
<ellipse fill="none" stroke="#1bdf05" cx="320" cy="-626" rx="77.9862" ry="18"/>
<text text-anchor="middle" x="320" y="-622.3" font-family="Times,serif" font-size="14.00" fill="#000000">container@v5.8.20</text>
</a>
</g>
</g>
<!-- alecrabbit__php_reports&#45;&gt;illuminate__container -->
<g id="edge5" class="edge">
<title>alecrabbit__php_reports&#45;&gt;illuminate__container</title>
<path fill="none" stroke="#12a9d3" d="M471.0313,-717.125C440.252,-698.5543 390.6549,-668.6298 356.7546,-648.176"/>
<polygon fill="#12a9d3" stroke="#12a9d3" points="358.4375,-645.1037 348.0671,-642.9344 354.8213,-651.0972 358.4375,-645.1037"/>
<text text-anchor="middle" x="447.5" y="-686.8" font-family="Times,serif" font-size="14.00" fill="#000000">^5.8</text>
</g>
<!-- alecrabbit__php_console_colour -->
<g id="node4" class="node">
<title>alecrabbit__php_console_colour</title>
<g id="a_node4"><a xlink:href="https://packagist.org/packages/alecrabbit/php-console-colour#0.5.0" xlink:title="php&#45;console&#45;colour@0.5.0">
<ellipse fill="none" stroke="#ce36fb" cx="797" cy="-734" rx="104.7816" ry="18"/>
<text text-anchor="middle" x="797" y="-730.3" font-family="Times,serif" font-size="14.00" fill="#000000">php&#45;console&#45;colour@0.5.0</text>
</a>
</g>
</g>
<!-- alecrabbit__php_cli_tools -->
<g id="node5" class="node">
<title>alecrabbit__php_cli_tools</title>
<g id="a_node5"><a xlink:href="https://packagist.org/packages/alecrabbit/php-cli-tools#0.1.3" xlink:title="php&#45;cli&#45;tools@0.1.3">
<ellipse fill="none" stroke="#d32548" cx="773" cy="-539" rx="81.4863" ry="18"/>
<text text-anchor="middle" x="773" y="-535.3" font-family="Times,serif" font-size="14.00" fill="#000000">php&#45;cli&#45;tools@0.1.3</text>
</a>
</g>
</g>
<!-- alecrabbit__php_console_colour&#45;&gt;alecrabbit__php_cli_tools -->
<g id="edge9" class="edge">
<title>alecrabbit__php_console_colour&#45;&gt;alecrabbit__php_cli_tools</title>
<path fill="none" stroke="#ff0000" stroke-width="2" d="M794.7421,-715.6549C790.5325,-681.4512 781.4606,-607.7427 776.4686,-567.1821"/>
<polygon fill="#ff0000" stroke="#ff0000" stroke-width="2" points="779.9298,-566.6519 775.2344,-557.1543 772.9822,-567.507 779.9298,-566.6519"/>
<text text-anchor="middle" x="806.5" y="-622.3" font-family="Times,serif" font-size="14.00" fill="#000000">^0.0.1</text>
</g>
<!-- alecrabbit__php_accessories -->
<g id="node6" class="node">
<title>alecrabbit__php_accessories</title>
<g id="a_node6"><a xlink:href="https://packagist.org/packages/alecrabbit/php-accessories#0.7.1" xlink:title="php&#45;accessories@0.7.1">
<ellipse fill="none" stroke="#0b911f" cx="1231" cy="-734" rx="92.0841" ry="18"/>
<text text-anchor="middle" x="1231" y="-730.3" font-family="Times,serif" font-size="14.00" fill="#000000">php&#45;accessories@0.7.1</text>
</a>
</g>
</g>
<!-- alecrabbit__php_accessories&#45;&gt;alecrabbit__php_helpers -->
<g id="edge10" class="edge">
<title>alecrabbit__php_accessories&#45;&gt;alecrabbit__php_helpers</title>
<path fill="none" stroke="#ff0000" stroke-width="2" d="M1242.6279,-716.0044C1264.9437,-681.4681 1313.8682,-605.7516 1339.9065,-565.4543"/>
<polygon fill="#ff0000" stroke="#ff0000" stroke-width="2" points="1342.9127,-567.2508 1345.4002,-556.9521 1337.0333,-563.4518 1342.9127,-567.2508"/>
<text text-anchor="middle" x="1328.5" y="-622.3" font-family="Times,serif" font-size="14.00" fill="#000000">^0.5</text>
</g>
<!-- alecrabbit__twrb_php_components -->
<g id="node7" class="node">
<title>alecrabbit__twrb_php_components</title>
<g id="a_node7"><a xlink:href="https://packagist.org/packages/alecrabbit/twrb-php-components#0.0.2" xlink:title="twrb&#45;php&#45;components@0.0.2">
<ellipse fill="none" stroke="#7585b4" cx="1566" cy="-734" rx="114.2798" ry="18"/>
<text text-anchor="middle" x="1566" y="-730.3" font-family="Times,serif" font-size="14.00" fill="#000000">twrb&#45;php&#45;components@0.0.2</text>
</a>
</g>
</g>
<!-- alecrabbit__twrb_php_components&#45;&gt;alecrabbit__php_helpers -->
<g id="edge11" class="edge">
<title>alecrabbit__twrb_php_components&#45;&gt;alecrabbit__php_helpers</title>
<path fill="none" stroke="#7585b4" d="M1553.3472,-715.8822C1530.5506,-684.2189 1479.8246,-618.0892 1425,-575 1417.9798,-569.4825 1409.9896,-564.392 1402.0146,-559.8815"/>
<polygon fill="#7585b4" stroke="#7585b4" points="1403.5305,-556.7223 1393.0694,-555.0438 1400.2005,-562.8796 1403.5305,-556.7223"/>
<text text-anchor="middle" x="1528" y="-622.3" font-family="Times,serif" font-size="14.00" fill="#000000">^0</text>
</g>
<!-- alecrabbit__twrb_php_components&#45;&gt;krowinski__bcmath_extended -->
<g id="edge12" class="edge">
<title>alecrabbit__twrb_php_components&#45;&gt;krowinski__bcmath_extended</title>
<path fill="none" stroke="#ff0000" stroke-width="2" d="M1501.8525,-719.0012C1481.5379,-714.7822 1458.9239,-710.6314 1438,-708 1364.9287,-698.8106 841.4407,-708.7843 776,-675 716.6657,-644.3682 704.8735,-620.0905 683,-557 676.5942,-538.5234 670.2343,-527.8141 683,-513 711.8649,-479.5036 981.5181,-451.8895 1131.869,-438.9399"/>
<polygon fill="#ff0000" stroke="#ff0000" stroke-width="2" points="1132.374,-442.4096 1142.0395,-438.0706 1131.7778,-435.435 1132.374,-442.4096"/>
<text text-anchor="middle" x="706.5" y="-578.8" font-family="Times,serif" font-size="14.00" fill="#000000">^4.1</text>
</g>
<!-- alecrabbit__twrb_php_components&#45;&gt;nesbot__carbon -->
<g id="edge13" class="edge">
<title>alecrabbit__twrb_php_components&#45;&gt;nesbot__carbon</title>
<path fill="none" stroke="#7585b4" d="M1590.7428,-716.3672C1614.5634,-697.1321 1647,-663.9688 1647,-626 1647,-626 1647,-626 1647,-431 1647,-402.3774 1635.4792,-371.5763 1625.4724,-350.2214"/>
<polygon fill="#7585b4" stroke="#7585b4" points="1628.5598,-348.5675 1621.028,-341.1161 1622.2692,-351.638 1628.5598,-348.5675"/>
<text text-anchor="middle" x="1659.5" y="-535.3" font-family="Times,serif" font-size="14.00" fill="#000000">^2.3</text>
</g>
<!-- alecrabbit__php_timers -->
<g id="node8" class="node">
<title>alecrabbit__php_timers</title>
<g id="a_node8"><a xlink:href="https://packagist.org/packages/alecrabbit/php-timers#0.0.1" xlink:title="php&#45;timers@0.0.1">
<ellipse fill="none" stroke="#96e213" cx="938" cy="-950" rx="75.2868" ry="18"/>
<text text-anchor="middle" x="938" y="-946.3" font-family="Times,serif" font-size="14.00" fill="#000000">php&#45;timers@0.0.1</text>
</a>
</g>
</g>
<!-- alecrabbit__php_timers&#45;&gt;alecrabbit__php_helpers -->
<g id="edge17" class="edge">
<title>alecrabbit__php_timers&#45;&gt;alecrabbit__php_helpers</title>
<path fill="none" stroke="#ff0000" stroke-width="2" d="M938,-931.655C938,-910.168 938,-873.5 938,-842 938,-842 938,-842 938,-626 938,-591.8557 1154.061,-561.8867 1275.8789,-547.7033"/>
<polygon fill="#ff0000" stroke="#ff0000" stroke-width="2" points="1276.3893,-551.1677 1285.9224,-546.5448 1275.5871,-544.2138 1276.3893,-551.1677"/>
<text text-anchor="middle" x="950.5" y="-730.3" font-family="Times,serif" font-size="14.00" fill="#000000">^0.5</text>
</g>
<!-- alecrabbit__php_timers&#45;&gt;alecrabbit__php_traits -->
<g id="edge18" class="edge">
<title>alecrabbit__php_timers&#45;&gt;alecrabbit__php_traits</title>
<path fill="none" stroke="#96e213" d="M947.44,-931.9555C967.3059,-893.9817 1013.5203,-805.6426 1036.9066,-760.9396"/>
<polygon fill="#96e213" stroke="#96e213" points="1040.1321,-762.3244 1041.6664,-751.8413 1033.9296,-759.0796 1040.1321,-762.3244"/>
<text text-anchor="middle" x="1015.5" y="-838.3" font-family="Times,serif" font-size="14.00" fill="#000000">^0.3</text>
</g>
<!-- alecrabbit__php_timers&#45;&gt;alecrabbit__php_reports -->
<g id="edge15" class="edge">
<title>alecrabbit__php_timers&#45;&gt;alecrabbit__php_reports</title>
<path fill="none" stroke="#ff0000" stroke-width="2" d="M898.1959,-934.6912C876.7188,-924.8308 851.0015,-910.2375 833,-891 810.4525,-866.9044 827.0985,-844.1954 801,-824 725.447,-765.5358 679.9693,-815.1225 590,-783 570.7515,-776.1275 550.6161,-765.6699 534.1939,-756.1782"/>
<polygon fill="#ff0000" stroke="#ff0000" stroke-width="2" points="535.8721,-753.1045 525.4817,-751.0333 532.3126,-759.132 535.8721,-753.1045"/>
<text text-anchor="middle" x="845.5" y="-838.3" font-family="Times,serif" font-size="14.00" fill="#000000">^0.1</text>
</g>
<!-- alecrabbit__php_timers&#45;&gt;alecrabbit__php_console_colour -->
<g id="edge16" class="edge">
<title>alecrabbit__php_timers&#45;&gt;alecrabbit__php_console_colour</title>
<path fill="none" stroke="#96e213" d="M927.6371,-931.7647C913.4185,-906.9964 886.7945,-861.5067 862,-824 847.4766,-802.0305 829.9391,-777.8733 816.7426,-760.1227"/>
<polygon fill="#96e213" stroke="#96e213" points="819.4342,-757.8776 810.6452,-751.9611 813.8263,-762.0671 819.4342,-757.8776"/>
<text text-anchor="middle" x="915.5" y="-838.3" font-family="Times,serif" font-size="14.00" fill="#000000">^0.5</text>
</g>
<!-- alecrabbit__php_timers&#45;&gt;alecrabbit__php_accessories -->
<g id="edge14" class="edge">
<title>alecrabbit__php_timers&#45;&gt;alecrabbit__php_accessories</title>
<path fill="none" stroke="#ff0000" stroke-width="2" d="M968.4536,-933.3943C987.4886,-922.419 1012.0824,-907.124 1032,-891 1064.2464,-864.8953 1065.1611,-850.6002 1097,-824 1127.5644,-798.4646 1165.491,-773.5438 1193.1858,-756.425"/>
<polygon fill="#ff0000" stroke="#ff0000" stroke-width="2" points="1195.0972,-759.3587 1201.7958,-751.1503 1191.4404,-753.3898 1195.0972,-759.3587"/>
<text text-anchor="middle" x="1109.5" y="-838.3" font-family="Times,serif" font-size="14.00" fill="#000000">^0.8</text>
</g>
<!-- alecrabbit__php_simple_profiler -->
<g id="node9" class="node">
<title>alecrabbit__php_simple_profiler</title>
<g id="a_node9"><a xlink:href="https://packagist.org/packages/alecrabbit/php-simple-profiler#0.5.2" xlink:title="php&#45;simple&#45;profiler@0.5.2">
<ellipse fill="none" stroke="#8ee1b3" cx="1231" cy="-950" rx="105.0817" ry="18"/>
<text text-anchor="middle" x="1231" y="-946.3" font-family="Times,serif" font-size="14.00" fill="#000000">php&#45;simple&#45;profiler@0.5.2</text>
</a>
</g>
</g>
<!-- alecrabbit__php_simple_profiler&#45;&gt;alecrabbit__php_helpers -->
<g id="edge20" class="edge">
<title>alecrabbit__php_simple_profiler&#45;&gt;alecrabbit__php_helpers</title>
<path fill="none" stroke="#ff0000" stroke-width="2" d="M1245.6536,-931.7882C1268.3975,-902.428 1311.6877,-841.9431 1332,-783 1357.7524,-708.2708 1359.3033,-613.6312 1358.2096,-567.2418"/>
<polygon fill="#ff0000" stroke="#ff0000" stroke-width="2" points="1361.7023,-566.9419 1357.9067,-557.0503 1354.7054,-567.15 1361.7023,-566.9419"/>
<text text-anchor="middle" x="1361.5" y="-730.3" font-family="Times,serif" font-size="14.00" fill="#000000">^0.5</text>
</g>
<!-- alecrabbit__php_simple_profiler&#45;&gt;alecrabbit__php_traits -->
<g id="edge21" class="edge">
<title>alecrabbit__php_simple_profiler&#45;&gt;alecrabbit__php_traits</title>
<path fill="none" stroke="#ff0000" stroke-width="2" d="M1215.9629,-931.9555C1183.9864,-893.5836 1109.1543,-803.7851 1072.2903,-759.5483"/>
<polygon fill="#ff0000" stroke="#ff0000" stroke-width="2" points="1074.9584,-757.2828 1065.8677,-751.8413 1069.5808,-761.7641 1074.9584,-757.2828"/>
<text text-anchor="middle" x="1193.5" y="-838.3" font-family="Times,serif" font-size="14.00" fill="#000000">^0.2</text>
</g>
<!-- alecrabbit__php_simple_profiler&#45;&gt;alecrabbit__php_accessories -->
<g id="edge19" class="edge">
<title>alecrabbit__php_simple_profiler&#45;&gt;alecrabbit__php_accessories</title>
<path fill="none" stroke="#ff0000" stroke-width="2" d="M1231,-931.9555C1231,-894.3938 1231,-807.5541 1231,-762.4103"/>
<polygon fill="#ff0000" stroke="#ff0000" stroke-width="2" points="1234.5001,-762.145 1231,-752.1451 1227.5001,-762.1451 1234.5001,-762.145"/>
<text text-anchor="middle" x="1243.5" y="-838.3" font-family="Times,serif" font-size="14.00" fill="#000000">^0.5</text>
</g>
<!-- alecrabbit__php_output_a -->
<g id="node10" class="node">
<title>alecrabbit__php_output_a</title>
<g id="a_node10"><a xlink:href="https://packagist.org/packages/alecrabbit/php-output-a#0.0.1" xlink:title="php&#45;output&#45;a@0.0.1">
<ellipse fill="none" stroke="#69609a" cx="1598" cy="-950" rx="81.7856" ry="18"/>
<text text-anchor="middle" x="1598" y="-946.3" font-family="Times,serif" font-size="14.00" fill="#000000">php&#45;output&#45;a@0.0.1</text>
</a>
</g>
</g>
<!-- alecrabbit__php_output_a&#45;&gt;alecrabbit__php_helpers -->
<g id="edge23" class="edge">
<title>alecrabbit__php_output_a&#45;&gt;alecrabbit__php_helpers</title>
<path fill="none" stroke="#69609a" d="M1534.7427,-938.4769C1483.5804,-925.079 1420,-897.3036 1420,-842 1420,-842 1420,-842 1420,-626 1420,-601.419 1403.2978,-579.0862 1387.0931,-563.2032"/>
<polygon fill="#69609a" stroke="#69609a" points="1389.4525,-560.6178 1379.7444,-556.3746 1384.6875,-565.7457 1389.4525,-560.6178"/>
<text text-anchor="middle" x="1427" y="-730.3" font-family="Times,serif" font-size="14.00" fill="#000000">^0</text>
</g>
<!-- alecrabbit__php_output_a&#45;&gt;alecrabbit__php_console_colour -->
<g id="edge24" class="edge">
<title>alecrabbit__php_output_a&#45;&gt;alecrabbit__php_console_colour</title>
<path fill="none" stroke="#69609a" d="M1525.6501,-941.4234C1491.3725,-935.9439 1450.3022,-927.2941 1415,-914 1340.451,-885.9265 1335.5569,-849.2357 1260,-824 1113.9593,-775.2231 1065.0069,-821.7814 916,-783 890.1749,-776.2786 862.5444,-765.1631 840.4146,-755.2167"/>
<polygon fill="#69609a" stroke="#69609a" points="841.8381,-752.0191 831.2884,-751.0417 838.926,-758.3846 841.8381,-752.0191"/>
<text text-anchor="middle" x="1374" y="-838.3" font-family="Times,serif" font-size="14.00" fill="#000000">^0</text>
</g>
<!-- alecrabbit__php_output_a&#45;&gt;krowinski__bcmath_extended -->
<g id="edge25" class="edge">
<title>alecrabbit__php_output_a&#45;&gt;krowinski__bcmath_extended</title>
<path fill="none" stroke="#ff0000" stroke-width="2" d="M1611.6364,-932.2478C1633.1119,-903.0462 1673.9195,-842.1926 1689,-783 1705.4947,-718.2567 1699.4308,-537.9462 1676,-513 1637.0322,-471.5119 1477.886,-490.7941 1422,-480 1378.708,-471.6383 1330.623,-459.2061 1293.6583,-448.9569"/>
<polygon fill="#ff0000" stroke="#ff0000" stroke-width="2" points="1294.5994,-445.5858 1284.0264,-446.266 1292.7159,-452.3277 1294.5994,-445.5858"/>
<text text-anchor="middle" x="1710.5" y="-686.8" font-family="Times,serif" font-size="14.00" fill="#000000">^4.1</text>
</g>
<!-- alecrabbit__php_output_a&#45;&gt;nesbot__carbon -->
<g id="edge22" class="edge">
<title>alecrabbit__php_output_a&#45;&gt;nesbot__carbon</title>
<path fill="none" stroke="#69609a" d="M1648.9332,-935.8552C1691.7443,-920.495 1746,-891.3028 1746,-842 1746,-842 1746,-842 1746,-431 1746,-386.5901 1700.903,-357.4379 1662.8386,-340.7417"/>
<polygon fill="#69609a" stroke="#69609a" points="1663.9201,-337.4001 1653.3444,-336.7635 1661.2149,-343.8562 1663.9201,-337.4001"/>
<text text-anchor="middle" x="1758.5" y="-622.3" font-family="Times,serif" font-size="14.00" fill="#000000">^2.3</text>
</g>
<!-- symfony__console -->
<g id="node18" class="node">
<title>symfony__console</title>
<g id="a_node18"><a xlink:href="https://packagist.org/packages/symfony/console#v4.3.0" xlink:title="console@v4.3.0">
<ellipse fill="none" stroke="#9882cf" cx="1800" cy="-215" rx="67.6881" ry="18"/>
<text text-anchor="middle" x="1800" y="-211.3" font-family="Times,serif" font-size="14.00" fill="#000000">console@v4.3.0</text>
</a>
</g>
</g>
<!-- alecrabbit__php_output_a&#45;&gt;symfony__console -->
<g id="edge27" class="edge">
<title>alecrabbit__php_output_a&#45;&gt;symfony__console</title>
<path fill="none" stroke="#69609a" d="M1669.431,-941.0537C1727.2042,-929.3487 1799,-902.6097 1799,-842 1799,-842 1799,-842 1799,-323 1799,-296.0516 1799.3152,-265.3224 1799.5916,-243.5509"/>
<polygon fill="#69609a" stroke="#69609a" points="1803.094,-243.39 1799.7267,-233.3445 1796.0946,-243.2973 1803.094,-243.39"/>
<text text-anchor="middle" x="1811.5" y="-578.8" font-family="Times,serif" font-size="14.00" fill="#000000">^4.1</text>
</g>
<!-- react__event_loop -->
<g id="node26" class="node">
<title>react__event_loop</title>
<g id="a_node26"><a xlink:href="https://packagist.org/packages/react/event-loop#v1.1.0" xlink:title="event&#45;loop@v1.1.0">
<ellipse fill="none" stroke="#d11626" cx="2092" cy="-626" rx="77.9862" ry="18"/>
<text text-anchor="middle" x="2092" y="-622.3" font-family="Times,serif" font-size="14.00" fill="#000000">event&#45;loop@v1.1.0</text>
</a>
</g>
</g>
<!-- alecrabbit__php_output_a&#45;&gt;react__event_loop -->
<g id="edge26" class="edge">
<title>alecrabbit__php_output_a&#45;&gt;react__event_loop</title>
<path fill="none" stroke="#69609a" d="M1677.9371,-946.017C1821.517,-938.197 2111.5827,-919.1133 2148,-891 2213.9773,-840.0671 2224.0867,-783.6048 2189,-708 2177.17,-682.5087 2153.0796,-662.076 2131.8674,-647.9827"/>
<polygon fill="#69609a" stroke="#69609a" points="2133.6167,-644.9472 2123.3032,-642.5218 2129.8532,-650.8494 2133.6167,-644.9472"/>
<text text-anchor="middle" x="2220.5" y="-794.8" font-family="Times,serif" font-size="14.00" fill="#000000">^1.0</text>
</g>
<!-- react__stream -->
<g id="node27" class="node">
<title>react__stream</title>
<g id="a_node27"><a xlink:href="https://packagist.org/packages/react/stream#v1.1.0" xlink:title="stream@v1.1.0">
<ellipse fill="none" stroke="#abbc06" cx="2074" cy="-842" rx="64.9885" ry="18"/>
<text text-anchor="middle" x="2074" y="-838.3" font-family="Times,serif" font-size="14.00" fill="#000000">stream@v1.1.0</text>
</a>
</g>
</g>
<!-- alecrabbit__php_output_a&#45;&gt;react__stream -->
<g id="edge28" class="edge">
<title>alecrabbit__php_output_a&#45;&gt;react__stream</title>
<path fill="none" stroke="#69609a" d="M1667.096,-940.286C1709.4257,-933.8762 1764.5901,-924.7002 1813,-914 1885.6543,-897.941 1968.2523,-874.2124 2020.7167,-858.4395"/>
<polygon fill="#69609a" stroke="#69609a" points="2021.9129,-861.7345 2030.4743,-855.4932 2019.8894,-855.0333 2021.9129,-861.7345"/>
<text text-anchor="middle" x="1882.5" y="-902.8" font-family="Times,serif" font-size="14.00" fill="#000000">^1.0</text>
</g>
<!-- alecrabbit__php_counters -->
<g id="node11" class="node">
<title>alecrabbit__php_counters</title>
<g id="a_node11"><a xlink:href="https://packagist.org/packages/alecrabbit/php-counters#0.1.2" xlink:title="php&#45;counters@0.1.2">
<ellipse fill="none" stroke="#865f58" cx="568" cy="-950" rx="82.5854" ry="18"/>
<text text-anchor="middle" x="568" y="-946.3" font-family="Times,serif" font-size="14.00" fill="#000000">php&#45;counters@0.1.2</text>
</a>
</g>
</g>
<!-- alecrabbit__php_counters&#45;&gt;alecrabbit__php_helpers -->
<g id="edge35" class="edge">
<title>alecrabbit__php_counters&#45;&gt;alecrabbit__php_helpers</title>
<path fill="none" stroke="#865f58" d="M583.2816,-932.1651C591.8481,-921.0784 601.8243,-906.0998 607,-891 633.4493,-813.8361 580.5188,-778.8174 621,-708 662.6679,-635.1065 697.32,-629.3111 776,-600 864.317,-567.0988 1130.611,-549.8191 1269.9226,-542.8195"/>
<polygon fill="#865f58" stroke="#865f58" points="1270.3236,-546.304 1280.138,-542.3132 1269.977,-539.3126 1270.3236,-546.304"/>
<text text-anchor="middle" x="652" y="-730.3" font-family="Times,serif" font-size="14.00" fill="#000000">^0.5 || ^0.6</text>
</g>
<!-- alecrabbit__php_counters&#45;&gt;alecrabbit__php_traits -->
<g id="edge36" class="edge">
<title>alecrabbit__php_counters&#45;&gt;alecrabbit__php_traits</title>
<path fill="none" stroke="#865f58" d="M593.276,-932.8523C639.1967,-901.9612 734.9888,-838.7941 772,-824 854.2353,-791.1288 884.3567,-814.8316 967,-783 984.7797,-776.1518 1003.2074,-765.8193 1018.2567,-756.4052"/>
<polygon fill="#865f58" stroke="#865f58" points="1020.162,-759.3413 1026.6967,-751.0017 1016.3877,-753.446 1020.162,-759.3413"/>
<text text-anchor="middle" x="784.5" y="-838.3" font-family="Times,serif" font-size="14.00" fill="#000000">^0.3</text>
</g>
<!-- alecrabbit__php_counters&#45;&gt;alecrabbit__php_reports -->
<g id="edge37" class="edge">
<title>alecrabbit__php_counters&#45;&gt;alecrabbit__php_reports</title>
<path fill="none" stroke="#865f58" d="M549.7008,-932.305C539.5533,-921.3808 527.6711,-906.5207 521,-891 502.8376,-848.744 499.0125,-794.7557 498.546,-762.3579"/>
<polygon fill="#865f58" stroke="#865f58" points="502.0456,-762.2308 498.5007,-752.2466 495.0456,-762.2622 502.0456,-762.2308"/>
<text text-anchor="middle" x="533.5" y="-838.3" font-family="Times,serif" font-size="14.00" fill="#000000">^0.2</text>
</g>
<!-- alecrabbit__php_counters&#45;&gt;alecrabbit__php_console_colour -->
<g id="edge34" class="edge">
<title>alecrabbit__php_counters&#45;&gt;alecrabbit__php_console_colour</title>
<path fill="none" stroke="#865f58" d="M586.74,-932.3238C627.4172,-893.9558 723.8957,-802.9543 770.6696,-758.8356"/>
<polygon fill="#865f58" stroke="#865f58" points="773.128,-761.3281 778.001,-751.9204 768.3249,-756.2359 773.128,-761.3281"/>
<text text-anchor="middle" x="713.5" y="-838.3" font-family="Times,serif" font-size="14.00" fill="#000000">^0.5</text>
</g>
<!-- alecrabbit__php_counters&#45;&gt;illuminate__container -->
<g id="edge38" class="edge">
<title>alecrabbit__php_counters&#45;&gt;illuminate__container</title>
<path fill="none" stroke="#865f58" d="M542.8777,-932.5376C535.2901,-926.903 527.0953,-920.4418 520,-914 509.7516,-904.6955 507.9831,-901.5313 499,-891 459.1799,-844.317 447.8295,-833.5158 413,-783 382.6879,-739.0362 351.9732,-684.9003 334.528,-653.0485"/>
<polygon fill="#865f58" stroke="#865f58" points="337.4109,-651.0238 329.5551,-643.9148 331.263,-654.3711 337.4109,-651.0238"/>
<text text-anchor="middle" x="440.5" y="-794.8" font-family="Times,serif" font-size="14.00" fill="#000000">^5.8</text>
</g>
<!-- symfony__translation -->
<g id="node14" class="node">
<title>symfony__translation</title>
<g id="a_node14"><a xlink:href="https://packagist.org/packages/symfony/translation#v4.3.0" xlink:title="translation@v4.3.0">
<ellipse fill="none" stroke="#edca00" cx="1611" cy="-215" rx="77.9862" ry="18"/>
<text text-anchor="middle" x="1611" y="-211.3" font-family="Times,serif" font-size="14.00" fill="#000000">translation@v4.3.0</text>
</a>
</g>
</g>
<!-- nesbot__carbon&#45;&gt;symfony__translation -->
<g id="edge4" class="edge">
<title>nesbot__carbon&#45;&gt;symfony__translation</title>
<path fill="none" stroke="#7b4e80" d="M1611,-304.6793C1611,-287.821 1611,-262.5651 1611,-243.147"/>
<polygon fill="#7b4e80" stroke="#7b4e80" points="1614.5001,-243.0501 1611,-233.0502 1607.5001,-243.0502 1614.5001,-243.0501"/>
<text text-anchor="middle" x="1642" y="-275.8" font-family="Times,serif" font-size="14.00" fill="#000000">^3.4 || ^4.0</text>
</g>
<!-- symfony__polyfill_mbstring -->
<g id="node15" class="node">
<title>symfony__polyfill_mbstring</title>
<g id="a_node15"><a xlink:href="https://packagist.org/packages/symfony/polyfill-mbstring#v1.11.0" xlink:title="polyfill&#45;mbstring@v1.11.0">
<ellipse fill="none" stroke="#30af36" cx="1814" cy="-34" rx="105.0817" ry="18"/>
<text text-anchor="middle" x="1814" y="-30.3" font-family="Times,serif" font-size="14.00" fill="#000000">polyfill&#45;mbstring@v1.11.0</text>
</a>
</g>
</g>
<!-- symfony__translation&#45;&gt;symfony__polyfill_mbstring -->
<g id="edge39" class="edge">
<title>symfony__translation&#45;&gt;symfony__polyfill_mbstring</title>
<path fill="none" stroke="#edca00" d="M1619.327,-196.9264C1634.6415,-164.342 1667.4907,-97.5885 1687,-81 1702.0996,-68.1611 1721.0271,-58.6812 1739.6238,-51.7403"/>
<polygon fill="#edca00" stroke="#edca00" points="1741.0245,-54.9578 1749.2965,-48.3378 1738.7016,-48.3545 1741.0245,-54.9578"/>
<text text-anchor="middle" x="1699.5" y="-103.3" font-family="Times,serif" font-size="14.00" fill="#000000">~1.0</text>
</g>
<!-- symfony__translation_contracts -->
<g id="node16" class="node">
<title>symfony__translation_contracts</title>
<g id="a_node16"><a xlink:href="https://packagist.org/packages/symfony/translation-contracts#v1.1.2" xlink:title="translation&#45;contracts@v1.1.2">
<ellipse fill="none" stroke="#1fa1aa" cx="1578" cy="-34" rx="112.3801" ry="18"/>
<text text-anchor="middle" x="1578" y="-30.3" font-family="Times,serif" font-size="14.00" fill="#000000">translation&#45;contracts@v1.1.2</text>
</a>
</g>
</g>
<!-- symfony__translation&#45;&gt;symfony__translation_contracts -->
<g id="edge40" class="edge">
<title>symfony__translation&#45;&gt;symfony__translation_contracts</title>
<path fill="none" stroke="#edca00" d="M1607.7152,-196.9833C1601.9729,-165.4877 1590.068,-100.1909 1583.1972,-62.5061"/>
<polygon fill="#edca00" stroke="#edca00" points="1586.5575,-61.4225 1581.3205,-52.2125 1579.671,-62.6781 1586.5575,-61.4225"/>
<text text-anchor="middle" x="1616.5" y="-103.3" font-family="Times,serif" font-size="14.00" fill="#000000">^1.1.2</text>
</g>
<!-- symfony__console&#45;&gt;symfony__polyfill_mbstring -->
<g id="edge29" class="edge">
<title>symfony__console&#45;&gt;symfony__polyfill_mbstring</title>
<path fill="none" stroke="#9882cf" d="M1801.3936,-196.9833C1803.8297,-165.4877 1808.8803,-100.1909 1811.7951,-62.5061"/>
<polygon fill="#9882cf" stroke="#9882cf" points="1815.3096,-62.4526 1812.5913,-52.2125 1808.3305,-61.9127 1815.3096,-62.4526"/>
<text text-anchor="middle" x="1822.5" y="-103.3" font-family="Times,serif" font-size="14.00" fill="#000000">~1.0</text>
</g>
<!-- symfony__console&#45;&gt;symfony__polyfill_php73 -->
<g id="edge30" class="edge">
<title>symfony__console&#45;&gt;symfony__polyfill_php73</title>
<path fill="none" stroke="#9882cf" d="M1790.6545,-196.9469C1773.0775,-163.7311 1734.817,-95.0356 1712,-81 1663.4229,-51.1184 1513.4619,-60.0436 1457,-52 1448.7089,-50.8188 1440.0658,-49.4924 1431.4546,-48.109"/>
<polygon fill="#9882cf" stroke="#9882cf" points="1431.8168,-44.6218 1421.3834,-46.4641 1430.6885,-51.5303 1431.8168,-44.6218"/>
<text text-anchor="middle" x="1779.5" y="-103.3" font-family="Times,serif" font-size="14.00" fill="#000000">^1.8</text>
</g>
<!-- symfony__service_contracts -->
<g id="node19" class="node">
<title>symfony__service_contracts</title>
<g id="a_node19"><a xlink:href="https://packagist.org/packages/symfony/service-contracts#v1.1.2" xlink:title="service&#45;contracts@v1.1.2">
<ellipse fill="none" stroke="#ad92b9" cx="2038" cy="-34" rx="100.9827" ry="18"/>
<text text-anchor="middle" x="2038" y="-30.3" font-family="Times,serif" font-size="14.00" fill="#000000">service&#45;contracts@v1.1.2</text>
</a>
</g>
</g>
<!-- symfony__console&#45;&gt;symfony__service_contracts -->
<g id="edge31" class="edge">
<title>symfony__console&#45;&gt;symfony__service_contracts</title>
<path fill="none" stroke="#9882cf" d="M1822.3905,-197.972C1865.0519,-165.5278 1958.0668,-94.7895 2006.8005,-57.7274"/>
<polygon fill="#9882cf" stroke="#9882cf" points="2008.9545,-60.4865 2014.7955,-51.6471 2004.7171,-54.9147 2008.9545,-60.4865"/>
<text text-anchor="middle" x="1984.5" y="-103.3" font-family="Times,serif" font-size="14.00" fill="#000000">^1.1</text>
</g>
<!-- illuminate__contracts -->
<g id="node21" class="node">
<title>illuminate__contracts</title>
<g id="a_node21"><a xlink:href="https://packagist.org/packages/illuminate/contracts#v5.8.20" xlink:title="contracts@v5.8.20">
<ellipse fill="none" stroke="#d04158" cx="269" cy="-215" rx="77.1866" ry="18"/>
<text text-anchor="middle" x="269" y="-211.3" font-family="Times,serif" font-size="14.00" fill="#000000">contracts@v5.8.20</text>
</a>
</g>
</g>
<!-- illuminate__container&#45;&gt;illuminate__contracts -->
<g id="edge6" class="edge">
<title>illuminate__container&#45;&gt;illuminate__contracts</title>
<path fill="none" stroke="#1bdf05" d="M337.4876,-608.3487C351.9061,-591.8621 370,-565.8282 370,-539 370,-539 370,-539 370,-323 370,-285.5436 337.1913,-255.7009 308.9723,-236.9604"/>
<polygon fill="#1bdf05" stroke="#1bdf05" points="310.7185,-233.923 300.4034,-231.5046 306.959,-239.8278 310.7185,-233.923"/>
<text text-anchor="middle" x="384" y="-427.3" font-family="Times,serif" font-size="14.00" fill="#000000">5.8.*</text>
</g>
<!-- illuminate__support -->
<g id="node22" class="node">
<title>illuminate__support</title>
<g id="a_node22"><a xlink:href="https://packagist.org/packages/illuminate/support#v5.8.20" xlink:title="support@v5.8.20">
<ellipse fill="none" stroke="#e3f048" cx="263" cy="-431" rx="71.4873" ry="18"/>
<text text-anchor="middle" x="263" y="-427.3" font-family="Times,serif" font-size="14.00" fill="#000000">support@v5.8.20</text>
</a>
</g>
</g>
<!-- illuminate__container&#45;&gt;illuminate__support -->
<g id="edge7" class="edge">
<title>illuminate__container&#45;&gt;illuminate__support</title>
<path fill="none" stroke="#1bdf05" d="M314.7397,-608.0044C304.7506,-573.8309 282.9757,-499.3378 271.1074,-458.7358"/>
<polygon fill="#1bdf05" stroke="#1bdf05" points="274.4127,-457.5685 268.2475,-448.9521 267.6939,-459.5325 274.4127,-457.5685"/>
<text text-anchor="middle" x="313" y="-535.3" font-family="Times,serif" font-size="14.00" fill="#000000">5.8.*</text>
</g>
<!-- psr__container -->
<g id="node23" class="node">
<title>psr__container</title>
<g id="a_node23"><a xlink:href="https://packagist.org/packages/psr/container#1.0.0" xlink:title="container@1.0.0">
<ellipse fill="none" stroke="#8e0501" cx="98" cy="-107" rx="69.5877" ry="18"/>
<text text-anchor="middle" x="98" y="-103.3" font-family="Times,serif" font-size="14.00" fill="#000000">container@1.0.0</text>
</a>
</g>
</g>
<!-- illuminate__container&#45;&gt;psr__container -->
<g id="edge8" class="edge">
<title>illuminate__container&#45;&gt;psr__container</title>
<path fill="none" stroke="#1bdf05" d="M245.3781,-620.6267C150.8206,-611.7229 0,-589.5916 0,-539 0,-539 0,-539 0,-215 0,-177.9893 31.9536,-148.0316 59.3689,-129.1399"/>
<polygon fill="#1bdf05" stroke="#1bdf05" points="61.6467,-131.8302 68.0643,-123.4002 57.7904,-125.9882 61.6467,-131.8302"/>
<text text-anchor="middle" x="12.5" y="-383.8" font-family="Times,serif" font-size="14.00" fill="#000000">^1.0</text>
</g>
<!-- illuminate__contracts&#45;&gt;psr__container -->
<g id="edge41" class="edge">
<title>illuminate__contracts&#45;&gt;psr__container</title>
<path fill="none" stroke="#d04158" d="M241.9045,-197.8871C212.4647,-179.2935 165.3286,-149.5233 133.0805,-129.1561"/>
<polygon fill="#d04158" stroke="#d04158" points="134.7307,-126.0587 124.4068,-123.678 130.9927,-131.9772 134.7307,-126.0587"/>
<text text-anchor="middle" x="220.5" y="-167.8" font-family="Times,serif" font-size="14.00" fill="#000000">^1.0</text>
</g>
<!-- psr__simple_cache -->
<g id="node24" class="node">
<title>psr__simple_cache</title>
<g id="a_node24"><a xlink:href="https://packagist.org/packages/psr/simple-cache#1.0.1" xlink:title="simple&#45;cache@1.0.1">
<ellipse fill="none" stroke="#01186e" cx="269" cy="-107" rx="83.3857" ry="18"/>
<text text-anchor="middle" x="269" y="-103.3" font-family="Times,serif" font-size="14.00" fill="#000000">simple&#45;cache@1.0.1</text>
</a>
</g>
</g>
<!-- illuminate__contracts&#45;&gt;psr__simple_cache -->
<g id="edge42" class="edge">
<title>illuminate__contracts&#45;&gt;psr__simple_cache</title>
<path fill="none" stroke="#d04158" d="M269,-196.6793C269,-179.821 269,-154.5651 269,-135.147"/>
<polygon fill="#d04158" stroke="#d04158" points="272.5001,-135.0501 269,-125.0502 265.5001,-135.0502 272.5001,-135.0501"/>
<text text-anchor="middle" x="281.5" y="-167.8" font-family="Times,serif" font-size="14.00" fill="#000000">^1.0</text>
</g>
<!-- illuminate__support&#45;&gt;nesbot__carbon -->
<g id="edge45" class="edge">
<title>illuminate__support&#45;&gt;nesbot__carbon</title>
<path fill="none" stroke="#e3f048" d="M304.4596,-416.2127C318.1554,-411.897 333.5788,-407.6367 348,-405 578.4211,-362.8706 1301.0693,-334.0386 1536.2351,-325.5764"/>
<polygon fill="#e3f048" stroke="#e3f048" points="1536.5284,-329.0682 1546.3967,-325.2125 1536.2778,-322.0727 1536.5284,-329.0682"/>
<text text-anchor="middle" x="567.5" y="-383.8" font-family="Times,serif" font-size="14.00" fill="#000000">^1.26.3 || ^2.0</text>
</g>
<!-- illuminate__support&#45;&gt;illuminate__contracts -->
<g id="edge44" class="edge">
<title>illuminate__support&#45;&gt;illuminate__contracts</title>
<path fill="none" stroke="#e3f048" d="M263.5012,-412.9555C264.5446,-375.3938 266.9568,-288.5541 268.2108,-243.4103"/>
<polygon fill="#e3f048" stroke="#e3f048" points="271.7169,-243.2384 268.496,-233.1451 264.7196,-243.044 271.7169,-243.2384"/>
<text text-anchor="middle" x="280" y="-319.3" font-family="Times,serif" font-size="14.00" fill="#000000">5.8.*</text>
</g>
<!-- doctrine__inflector -->
<g id="node25" class="node">
<title>doctrine__inflector</title>
<g id="a_node25"><a xlink:href="https://packagist.org/packages/doctrine/inflector#v1.3.0" xlink:title="inflector@v1.3.0">
<ellipse fill="none" stroke="#9cfd56" cx="98" cy="-323" rx="70.3881" ry="18"/>
<text text-anchor="middle" x="98" y="-319.3" font-family="Times,serif" font-size="14.00" fill="#000000">inflector@v1.3.0</text>
</a>
</g>
</g>
<!-- illuminate__support&#45;&gt;doctrine__inflector -->
<g id="edge43" class="edge">
<title>illuminate__support&#45;&gt;doctrine__inflector</title>
<path fill="none" stroke="#e3f048" d="M237.2188,-414.125C208.9676,-395.6333 163.5176,-365.8843 132.2797,-345.4376"/>
<polygon fill="#e3f048" stroke="#e3f048" points="134.1558,-342.4825 123.8719,-339.9344 130.3222,-348.3395 134.1558,-342.4825"/>
<text text-anchor="middle" x="216.5" y="-383.8" font-family="Times,serif" font-size="14.00" fill="#000000">^1.1</text>
</g>
<!-- react__stream&#45;&gt;react__event_loop -->
<g id="edge32" class="edge">
<title>react__stream&#45;&gt;react__event_loop</title>
<path fill="none" stroke="#abbc06" d="M2060.8537,-824.1782C2053.4284,-812.9784 2044.878,-797.8776 2041,-783 2032.5923,-750.7444 2031.8458,-740.0517 2041,-708 2046.8116,-687.6519 2059.2913,-667.434 2070.4504,-652.1651"/>
<polygon fill="#abbc06" stroke="#abbc06" points="2073.5533,-653.8659 2076.8077,-643.7833 2067.976,-649.6357 2073.5533,-653.8659"/>
<text text-anchor="middle" x="2115" y="-730.3" font-family="Times,serif" font-size="14.00" fill="#000000">^1.0 || ^0.5 || ^0.4 || ^0.3.5</text>
</g>
<!-- evenement__evenement -->
<g id="node28" class="node">
<title>evenement__evenement</title>
<g id="a_node28"><a xlink:href="https://packagist.org/packages/evenement/evenement#v3.0.1" xlink:title="evenement@v3.0.1">
<ellipse fill="none" stroke="#8a9d05" cx="1906" cy="-734" rx="79.0865" ry="18"/>
<text text-anchor="middle" x="1906" y="-730.3" font-family="Times,serif" font-size="14.00" fill="#000000">evenement@v3.0.1</text>
</a>
</g>
</g>
<!-- react__stream&#45;&gt;evenement__evenement -->
<g id="edge33" class="edge">
<title>react__stream&#45;&gt;evenement__evenement</title>
<path fill="none" stroke="#abbc06" d="M2014.8607,-834.5333C1977.9699,-828.675 1935.0916,-819.2747 1922,-806 1910.7854,-794.6286 1906.7006,-777.2466 1905.4602,-762.4103"/>
<polygon fill="#abbc06" stroke="#abbc06" points="1908.9458,-762.0114 1904.9984,-752.1794 1901.9529,-762.3271 1908.9458,-762.0114"/>
<text text-anchor="middle" x="1972" y="-794.8" font-family="Times,serif" font-size="14.00" fill="#000000">^3.0 || ^2.0 || ^1.0</text>
</g>
</g>
</svg>
