<?xml version="1.0" encoding="UTF-8" standalone="no"?>
<!DOCTYPE svg PUBLIC "-//W3C//DTD SVG 1.1//EN"
 "http://www.w3.org/Graphics/SVG/1.1/DTD/svg11.dtd">
<!-- Generated by graphviz version 2.40.1 (0)
 -->
<!-- Title: packages Pages: 1 -->
<svg width="585pt" height="565pt"
 viewBox="0.00 0.00 585.00 565.00" xmlns="http://www.w3.org/2000/svg" xmlns:xlink="http://www.w3.org/1999/xlink">
<g id="graph0" class="graph" transform="scale(1 1) rotate(0) translate(4 561)">
<title>packages</title>
<polygon fill="#ffffff" stroke="transparent" points="-4,4 -4,-561 581,-561 581,4 -4,4"/>
<g id="clust1" class="cluster">
<title>cluster_alecrabbit</title>
<g id="a_clust1"><a xlink:href="https://packagist.org/packages/alecrabbit/" xlink:title="alecrabbit">
<polygon fill="none" stroke="#000000" points="199,-349 199,-549 399,-549 399,-349 199,-349"/>
<text text-anchor="middle" x="299" y="-533.8" font-family="Times,serif" font-size="14.00" fill="#000000">alecrabbit</text>
</a>
</g>
</g>
<g id="clust2" class="cluster">
<title>cluster_krowinski</title>
<g id="a_clust2"><a xlink:href="https://packagist.org/packages/krowinski/" xlink:title="krowinski">
<polygon fill="none" stroke="#000000" points="8,-241 8,-316 218,-316 218,-241 8,-241"/>
<text text-anchor="middle" x="113" y="-300.8" font-family="Times,serif" font-size="14.00" fill="#000000">krowinski</text>
</a>
</g>
</g>
<g id="clust3" class="cluster">
<title>cluster_nesbot</title>
<g id="a_clust3"><a xlink:href="https://packagist.org/packages/nesbot/" xlink:title="nesbot">
<polygon fill="none" stroke="#000000" points="226,-241 226,-316 372,-316 372,-241 226,-241"/>
<text text-anchor="middle" x="299" y="-300.8" font-family="Times,serif" font-size="14.00" fill="#000000">nesbot</text>
</a>
</g>
</g>
<g id="clust4" class="cluster">
<title>cluster_symfony</title>
<g id="a_clust4"><a xlink:href="https://packagist.org/packages/symfony/" xlink:title="symfony">
<polygon fill="none" stroke="#000000" points="100,-8 100,-208 569,-208 569,-8 100,-8"/>
<text text-anchor="middle" x="334.5" y="-192.8" font-family="Times,serif" font-size="14.00" fill="#000000">symfony</text>
</a>
</g>
</g>
<!-- alecrabbit__php_accessories -->
<g id="node1" class="node">
<title>alecrabbit__php_accessories</title>
<g id="a_node1"><a xlink:href="https://packagist.org/packages/alecrabbit/php-accessories#0.7.1" xlink:title="php&#45;accessories@0.7.1">
<ellipse fill="none" stroke="#0b911f" cx="299" cy="-500" rx="92.0841" ry="18"/>
<text text-anchor="middle" x="299" y="-496.3" font-family="Times,serif" font-size="14.00" fill="#000000">php&#45;accessories@0.7.1</text>
</a>
</g>
</g>
<!-- alecrabbit__php_helpers -->
<g id="node2" class="node">
<title>alecrabbit__php_helpers</title>
<g id="a_node2"><a xlink:href="https://packagist.org/packages/alecrabbit/php-helpers#0.6.1" xlink:title="php&#45;helpers@0.6.1">
<ellipse fill="none" stroke="#592953" cx="299" cy="-375" rx="77.9862" ry="18"/>
<text text-anchor="middle" x="299" y="-371.3" font-family="Times,serif" font-size="14.00" fill="#000000">php&#45;helpers@0.6.1</text>
</a>
</g>
</g>
<!-- alecrabbit__php_accessories&#45;&gt;alecrabbit__php_helpers -->
<g id="edge1" class="edge">
<title>alecrabbit__php_accessories&#45;&gt;alecrabbit__php_helpers</title>
<path fill="none" stroke="#ff0000" stroke-width="2" d="M299,-481.8239C299,-461.2723 299,-427.5472 299,-403.4893"/>
<polygon fill="#ff0000" stroke="#ff0000" stroke-width="2" points="302.5001,-403.198 299,-393.198 295.5001,-403.198 302.5001,-403.198"/>
<text text-anchor="middle" x="311.5" y="-433.8" font-family="Times,serif" font-size="14.00" fill="#000000">^0.5</text>
</g>
<!-- krowinski__bcmath_extended -->
<g id="node3" class="node">
<title>krowinski__bcmath_extended</title>
<g id="a_node3"><a xlink:href="https://packagist.org/packages/krowinski/bcmath-extended#5.0.0" xlink:title="bcmath&#45;extended@5.0.0">
<ellipse fill="none" stroke="#d57e16" cx="113" cy="-267" rx="97.4827" ry="18"/>
<text text-anchor="middle" x="113" y="-263.3" font-family="Times,serif" font-size="14.00" fill="#000000">bcmath&#45;extended@5.0.0</text>
</a>
</g>
</g>
<!-- alecrabbit__php_helpers&#45;&gt;krowinski__bcmath_extended -->
<g id="edge2" class="edge">
<title>alecrabbit__php_helpers&#45;&gt;krowinski__bcmath_extended</title>
<path fill="none" stroke="#592953" d="M267.9637,-358.4112C256.8763,-352.3955 244.3276,-345.484 233,-339 204.9545,-322.9466 173.6584,-304.1386 150.0602,-289.772"/>
<polygon fill="#592953" stroke="#592953" points="151.7753,-286.7185 141.4157,-284.4983 148.1297,-292.6942 151.7753,-286.7185"/>
<text text-anchor="middle" x="264" y="-327.8" font-family="Times,serif" font-size="14.00" fill="#000000">^4.2 || ^5.0</text>
</g>
<!-- nesbot__carbon -->
<g id="node4" class="node">
<title>nesbot__carbon</title>
<g id="a_node4"><a xlink:href="https://packagist.org/packages/nesbot/carbon#2.19.0" xlink:title="carbon@2.19.0">
<ellipse fill="none" stroke="#7b4e80" cx="299" cy="-267" rx="64.9885" ry="18"/>
<text text-anchor="middle" x="299" y="-263.3" font-family="Times,serif" font-size="14.00" fill="#000000">carbon@2.19.0</text>
</a>
</g>
</g>
<!-- alecrabbit__php_helpers&#45;&gt;nesbot__carbon -->
<g id="edge3" class="edge">
<title>alecrabbit__php_helpers&#45;&gt;nesbot__carbon</title>
<path fill="none" stroke="#592953" d="M299,-356.6793C299,-339.821 299,-314.5651 299,-295.147"/>
<polygon fill="#592953" stroke="#592953" points="302.5001,-295.0501 299,-285.0502 295.5001,-295.0502 302.5001,-295.0501"/>
<text text-anchor="middle" x="314.5" y="-327.8" font-family="Times,serif" font-size="14.00" fill="#000000">^2.11</text>
</g>
<!-- symfony__polyfill_php73 -->
<g id="node8" class="node">
<title>symfony__polyfill_php73</title>
<g id="a_node8"><a xlink:href="https://packagist.org/packages/symfony/polyfill-php73#v1.11.0" xlink:title="polyfill&#45;php73@v1.11.0">
<ellipse fill="none" stroke="#e0ffa6" cx="435" cy="-159" rx="95.5831" ry="18"/>
<text text-anchor="middle" x="435" y="-155.3" font-family="Times,serif" font-size="14.00" fill="#000000">polyfill&#45;php73@v1.11.0</text>
</a>
</g>
</g>
<!-- alecrabbit__php_helpers&#45;&gt;symfony__polyfill_php73 -->
<g id="edge4" class="edge">
<title>alecrabbit__php_helpers&#45;&gt;symfony__polyfill_php73</title>
<path fill="none" stroke="#592953" d="M328.2443,-358.2399C344.2075,-347.8327 363.2574,-333.1781 376,-316 405.4288,-276.3274 421.763,-220.2923 429.4344,-187.0011"/>
<polygon fill="#592953" stroke="#592953" points="432.8952,-187.5596 431.6263,-177.041 426.0588,-186.055 432.8952,-187.5596"/>
<text text-anchor="middle" x="428.5" y="-263.3" font-family="Times,serif" font-size="14.00" fill="#000000">^1.10</text>
</g>
<!-- symfony__translation -->
<g id="node5" class="node">
<title>symfony__translation</title>
<g id="a_node5"><a xlink:href="https://packagist.org/packages/symfony/translation#v4.3.0" xlink:title="translation@v4.3.0">
<ellipse fill="none" stroke="#edca00" cx="243" cy="-159" rx="77.9862" ry="18"/>
<text text-anchor="middle" x="243" y="-155.3" font-family="Times,serif" font-size="14.00" fill="#000000">translation@v4.3.0</text>
</a>
</g>
</g>
<!-- nesbot__carbon&#45;&gt;symfony__translation -->
<g id="edge5" class="edge">
<title>nesbot__carbon&#45;&gt;symfony__translation</title>
<path fill="none" stroke="#7b4e80" d="M289.7527,-249.166C280.8893,-232.0723 267.3862,-206.0304 257.1666,-186.3212"/>
<polygon fill="#7b4e80" stroke="#7b4e80" points="260.1585,-184.4879 252.4482,-177.2215 253.9443,-187.7102 260.1585,-184.4879"/>
<text text-anchor="middle" x="310" y="-219.8" font-family="Times,serif" font-size="14.00" fill="#000000">^3.4 || ^4.0</text>
</g>
<!-- symfony__polyfill_mbstring -->
<g id="node6" class="node">
<title>symfony__polyfill_mbstring</title>
<g id="a_node6"><a xlink:href="https://packagist.org/packages/symfony/polyfill-mbstring#v1.11.0" xlink:title="polyfill&#45;mbstring@v1.11.0">
<ellipse fill="none" stroke="#30af36" cx="213" cy="-34" rx="105.0817" ry="18"/>
<text text-anchor="middle" x="213" y="-30.3" font-family="Times,serif" font-size="14.00" fill="#000000">polyfill&#45;mbstring@v1.11.0</text>
</a>
</g>
</g>
<!-- symfony__translation&#45;&gt;symfony__polyfill_mbstring -->
<g id="edge6" class="edge">
<title>symfony__translation&#45;&gt;symfony__polyfill_mbstring</title>
<path fill="none" stroke="#edca00" d="M238.6377,-140.8239C233.6831,-120.1798 225.5383,-86.2431 219.7596,-62.1648"/>
<polygon fill="#edca00" stroke="#edca00" points="223.1047,-61.1051 217.3675,-52.198 216.298,-62.7387 223.1047,-61.1051"/>
<text text-anchor="middle" x="242.5" y="-92.8" font-family="Times,serif" font-size="14.00" fill="#000000">~1.0</text>
</g>
<!-- symfony__translation_contracts -->
<g id="node7" class="node">
<title>symfony__translation_contracts</title>
<g id="a_node7"><a xlink:href="https://packagist.org/packages/symfony/translation-contracts#v1.1.2" xlink:title="translation&#45;contracts@v1.1.2">
<ellipse fill="none" stroke="#1fa1aa" cx="449" cy="-34" rx="112.3801" ry="18"/>
<text text-anchor="middle" x="449" y="-30.3" font-family="Times,serif" font-size="14.00" fill="#000000">translation&#45;contracts@v1.1.2</text>
</a>
</g>
</g>
<!-- symfony__translation&#45;&gt;symfony__translation_contracts -->
<g id="edge7" class="edge">
<title>symfony__translation&#45;&gt;symfony__translation_contracts</title>
<path fill="none" stroke="#edca00" d="M270.7821,-142.1419C307.0278,-120.1482 370.5979,-81.5741 411.2046,-56.9341"/>
<polygon fill="#edca00" stroke="#edca00" points="413.2686,-59.7757 420.0021,-51.5958 409.6372,-53.7913 413.2686,-59.7757"/>
<text text-anchor="middle" x="373.5" y="-92.8" font-family="Times,serif" font-size="14.00" fill="#000000">^1.1.2</text>
</g>
</g>
</svg>
