<?xml version="1.0" encoding="UTF-8" standalone="no"?>
<!DOCTYPE svg PUBLIC "-//W3C//DTD SVG 1.1//EN"
 "http://www.w3.org/Graphics/SVG/1.1/DTD/svg11.dtd">
<!-- Generated by graphviz version 2.40.1 (0)
 -->
<!-- Title: packages Pages: 1 -->
<svg width="941pt" height="743pt"
 viewBox="0.00 0.00 941.00 743.00" xmlns="http://www.w3.org/2000/svg" xmlns:xlink="http://www.w3.org/1999/xlink">
<g id="graph0" class="graph" transform="scale(1 1) rotate(0) translate(4 739)">
<title>packages</title>
<polygon fill="#ffffff" stroke="transparent" points="-4,4 -4,-739 937,-739 937,4 -4,4"/>
<g id="clust1" class="cluster">
<title>cluster_alecrabbit</title>
<g id="a_clust1"><a xlink:href="https://packagist.org/packages/alecrabbit/" xlink:title="alecrabbit">
<polygon fill="none" stroke="#000000" points="104,-652 104,-727 607,-727 607,-652 104,-652"/>
<text text-anchor="middle" x="355.5" y="-711.8" font-family="Times,serif" font-size="14.00" fill="#000000">alecrabbit</text>
</a>
</g>
</g>
<g id="clust2" class="cluster">
<title>cluster_doctrine</title>
<g id="a_clust2"><a xlink:href="https://packagist.org/packages/doctrine/" xlink:title="doctrine">
<polygon fill="none" stroke="#000000" points="62,-297 62,-372 218,-372 218,-297 62,-297"/>
<text text-anchor="middle" x="140" y="-356.8" font-family="Times,serif" font-size="14.00" fill="#000000">doctrine</text>
</a>
</g>
</g>
<g id="clust3" class="cluster">
<title>cluster_illuminate</title>
<g id="a_clust3"><a xlink:href="https://packagist.org/packages/illuminate/" xlink:title="illuminate">
<polygon fill="none" stroke="#000000" points="226,-189 226,-619 448,-619 448,-189 226,-189"/>
<text text-anchor="middle" x="337" y="-603.8" font-family="Times,serif" font-size="14.00" fill="#000000">illuminate</text>
</a>
</g>
</g>
<g id="clust4" class="cluster">
<title>cluster_krowinski</title>
<g id="a_clust4"><a xlink:href="https://packagist.org/packages/krowinski/" xlink:title="krowinski">
<polygon fill="none" stroke="#000000" points="8,-544 8,-619 218,-619 218,-544 8,-544"/>
<text text-anchor="middle" x="113" y="-603.8" font-family="Times,serif" font-size="14.00" fill="#000000">krowinski</text>
</a>
</g>
</g>
<g id="clust5" class="cluster">
<title>cluster_nesbot</title>
<g id="a_clust5"><a xlink:href="https://packagist.org/packages/nesbot/" xlink:title="nesbot">
<polygon fill="none" stroke="#000000" points="456,-297 456,-372 602,-372 602,-297 456,-297"/>
<text text-anchor="middle" x="529" y="-356.8" font-family="Times,serif" font-size="14.00" fill="#000000">nesbot</text>
</a>
</g>
</g>
<g id="clust6" class="cluster">
<title>cluster_psr</title>
<g id="a_clust6"><a xlink:href="https://packagist.org/packages/psr/" xlink:title="psr">
<polygon fill="none" stroke="#000000" points="62,-81 62,-156 402,-156 402,-81 62,-81"/>
<text text-anchor="middle" x="232" y="-140.8" font-family="Times,serif" font-size="14.00" fill="#000000">psr</text>
</a>
</g>
</g>
<g id="clust7" class="cluster">
<title>cluster_symfony</title>
<g id="a_clust7"><a xlink:href="https://packagist.org/packages/symfony/" xlink:title="symfony">
<polygon fill="none" stroke="#000000" points="456,-8 456,-264 925,-264 925,-8 456,-8"/>
<text text-anchor="middle" x="690.5" y="-248.8" font-family="Times,serif" font-size="14.00" fill="#000000">symfony</text>
</a>
</g>
</g>
<!-- alecrabbit__php_helpers -->
<g id="node1" class="node">
<title>alecrabbit__php_helpers</title>
<g id="a_node1"><a xlink:href="https://packagist.org/packages/alecrabbit/php-helpers#0.6.1" xlink:title="php&#45;helpers@0.6.1">
<ellipse fill="none" stroke="#592953" cx="521" cy="-678" rx="77.9862" ry="18"/>
<text text-anchor="middle" x="521" y="-674.3" font-family="Times,serif" font-size="14.00" fill="#000000">php&#45;helpers@0.6.1</text>
</a>
</g>
</g>
<!-- krowinski__bcmath_extended -->
<g id="node8" class="node">
<title>krowinski__bcmath_extended</title>
<g id="a_node8"><a xlink:href="https://packagist.org/packages/krowinski/bcmath-extended#5.0.0" xlink:title="bcmath&#45;extended@5.0.0">
<ellipse fill="none" stroke="#d57e16" cx="113" cy="-570" rx="97.4827" ry="18"/>
<text text-anchor="middle" x="113" y="-566.3" font-family="Times,serif" font-size="14.00" fill="#000000">bcmath&#45;extended@5.0.0</text>
</a>
</g>
</g>
<!-- alecrabbit__php_helpers&#45;&gt;krowinski__bcmath_extended -->
<g id="edge1" class="edge">
<title>alecrabbit__php_helpers&#45;&gt;krowinski__bcmath_extended</title>
<path fill="none" stroke="#592953" d="M483.8175,-662.0525C454.1408,-650.1185 411.1885,-634.599 372,-627 306.4594,-614.291 286.8814,-634.7317 222,-619 197.8699,-613.1492 172.4805,-602.0607 152.2823,-591.91"/>
<polygon fill="#592953" stroke="#592953" points="153.8837,-588.7979 143.3905,-587.3344 150.6807,-595.0222 153.8837,-588.7979"/>
<text text-anchor="middle" x="457" y="-630.8" font-family="Times,serif" font-size="14.00" fill="#000000">^4.2 || ^5.0</text>
</g>
<!-- nesbot__carbon -->
<g id="node9" class="node">
<title>nesbot__carbon</title>
<g id="a_node9"><a xlink:href="https://packagist.org/packages/nesbot/carbon#2.19.1" xlink:title="carbon@2.19.1">
<ellipse fill="none" stroke="#7b4e80" cx="529" cy="-323" rx="64.9885" ry="18"/>
<text text-anchor="middle" x="529" y="-319.3" font-family="Times,serif" font-size="14.00" fill="#000000">carbon@2.19.1</text>
</a>
</g>
</g>
<!-- alecrabbit__php_helpers&#45;&gt;nesbot__carbon -->
<g id="edge2" class="edge">
<title>alecrabbit__php_helpers&#45;&gt;nesbot__carbon</title>
<path fill="none" stroke="#592953" d="M521.8198,-659.6593C522.708,-638.1763 524,-601.5122 524,-570 524,-570 524,-570 524,-431 524,-404.0239 525.5759,-373.2981 526.9582,-351.5349"/>
<polygon fill="#592953" stroke="#592953" points="530.4653,-351.5424 527.6337,-341.333 523.4806,-351.0799 530.4653,-351.5424"/>
<text text-anchor="middle" x="539.5" y="-503.8" font-family="Times,serif" font-size="14.00" fill="#000000">^2.11</text>
</g>
<!-- symfony__polyfill_php73 -->
<g id="node13" class="node">
<title>symfony__polyfill_php73</title>
<g id="a_node13"><a xlink:href="https://packagist.org/packages/symfony/polyfill-php73#v1.11.0" xlink:title="polyfill&#45;php73@v1.11.0">
<ellipse fill="none" stroke="#e0ffa6" cx="747" cy="-215" rx="95.5831" ry="18"/>
<text text-anchor="middle" x="747" y="-211.3" font-family="Times,serif" font-size="14.00" fill="#000000">polyfill&#45;php73@v1.11.0</text>
</a>
</g>
</g>
<!-- alecrabbit__php_helpers&#45;&gt;symfony__polyfill_php73 -->
<g id="edge3" class="edge">
<title>alecrabbit__php_helpers&#45;&gt;symfony__polyfill_php73</title>
<path fill="none" stroke="#592953" d="M574.5914,-664.9201C620.0731,-650.2398 678,-621.4445 678,-570 678,-570 678,-570 678,-323 678,-290.6436 700.2653,-260.1976 719.5001,-239.9324"/>
<polygon fill="#592953" stroke="#592953" points="722.1279,-242.2527 726.6709,-232.6813 717.1507,-237.3306 722.1279,-242.2527"/>
<text text-anchor="middle" x="693.5" y="-470.8" font-family="Times,serif" font-size="14.00" fill="#000000">^1.10</text>
</g>
<!-- alecrabbit__php_reports -->
<g id="node2" class="node">
<title>alecrabbit__php_reports</title>
<g id="a_node2"><a xlink:href="https://packagist.org/packages/alecrabbit/php-reports#0.2.2" xlink:title="php&#45;reports@0.2.2">
<ellipse fill="none" stroke="#12a9d3" cx="348" cy="-678" rx="77.1866" ry="18"/>
<text text-anchor="middle" x="348" y="-674.3" font-family="Times,serif" font-size="14.00" fill="#000000">php&#45;reports@0.2.2</text>
</a>
</g>
</g>
<!-- illuminate__container -->
<g id="node5" class="node">
<title>illuminate__container</title>
<g id="a_node5"><a xlink:href="https://packagist.org/packages/illuminate/container#v5.8.20" xlink:title="container@v5.8.20">
<ellipse fill="none" stroke="#1bdf05" cx="334" cy="-570" rx="77.9862" ry="18"/>
<text text-anchor="middle" x="334" y="-566.3" font-family="Times,serif" font-size="14.00" fill="#000000">container@v5.8.20</text>
</a>
</g>
</g>
<!-- alecrabbit__php_reports&#45;&gt;illuminate__container -->
<g id="edge5" class="edge">
<title>alecrabbit__php_reports&#45;&gt;illuminate__container</title>
<path fill="none" stroke="#12a9d3" d="M345.6251,-659.6793C343.4398,-642.821 340.1658,-617.5651 337.6487,-598.147"/>
<polygon fill="#12a9d3" stroke="#12a9d3" points="341.0964,-597.5172 336.3398,-588.0502 334.1545,-598.4172 341.0964,-597.5172"/>
<text text-anchor="middle" x="355.5" y="-630.8" font-family="Times,serif" font-size="14.00" fill="#000000">^5.8</text>
</g>
<!-- alecrabbit__php_traits -->
<g id="node3" class="node">
<title>alecrabbit__php_traits</title>
<g id="a_node3"><a xlink:href="https://packagist.org/packages/alecrabbit/php-traits#0.3.2" xlink:title="php&#45;traits@0.3.2">
<ellipse fill="none" stroke="#e0784e" cx="182" cy="-678" rx="70.3881" ry="18"/>
<text text-anchor="middle" x="182" y="-674.3" font-family="Times,serif" font-size="14.00" fill="#000000">php&#45;traits@0.3.2</text>
</a>
</g>
</g>
<!-- doctrine__inflector -->
<g id="node4" class="node">
<title>doctrine__inflector</title>
<g id="a_node4"><a xlink:href="https://packagist.org/packages/doctrine/inflector#v1.3.0" xlink:title="inflector@v1.3.0">
<ellipse fill="none" stroke="#9cfd56" cx="140" cy="-323" rx="70.3881" ry="18"/>
<text text-anchor="middle" x="140" y="-319.3" font-family="Times,serif" font-size="14.00" fill="#000000">inflector@v1.3.0</text>
</a>
</g>
</g>
<!-- illuminate__contracts -->
<g id="node6" class="node">
<title>illuminate__contracts</title>
<g id="a_node6"><a xlink:href="https://packagist.org/packages/illuminate/contracts#v5.8.20" xlink:title="contracts@v5.8.20">
<ellipse fill="none" stroke="#d04158" cx="311" cy="-215" rx="77.1866" ry="18"/>
<text text-anchor="middle" x="311" y="-211.3" font-family="Times,serif" font-size="14.00" fill="#000000">contracts@v5.8.20</text>
</a>
</g>
</g>
<!-- illuminate__container&#45;&gt;illuminate__contracts -->
<g id="edge6" class="edge">
<title>illuminate__container&#45;&gt;illuminate__contracts</title>
<path fill="none" stroke="#1bdf05" d="M290.5989,-554.7477C270.9297,-544.805 252,-529.5168 252,-507.5 252,-507.5 252,-507.5 252,-323 252,-292.0159 270.9332,-261.4783 287.349,-240.8241"/>
<polygon fill="#1bdf05" stroke="#1bdf05" points="290.2504,-242.8082 293.9348,-232.8746 284.8599,-238.3424 290.2504,-242.8082"/>
<text text-anchor="middle" x="266" y="-427.3" font-family="Times,serif" font-size="14.00" fill="#000000">5.8.*</text>
</g>
<!-- illuminate__support -->
<g id="node7" class="node">
<title>illuminate__support</title>
<g id="a_node7"><a xlink:href="https://packagist.org/packages/illuminate/support#v5.8.20" xlink:title="support@v5.8.20">
<ellipse fill="none" stroke="#e3f048" cx="369" cy="-431" rx="71.4873" ry="18"/>
<text text-anchor="middle" x="369" y="-427.3" font-family="Times,serif" font-size="14.00" fill="#000000">support@v5.8.20</text>
</a>
</g>
</g>
<!-- illuminate__container&#45;&gt;illuminate__support -->
<g id="edge7" class="edge">
<title>illuminate__container&#45;&gt;illuminate__support</title>
<path fill="none" stroke="#1bdf05" d="M338.5756,-551.8282C344.5235,-528.2067 354.9718,-486.7119 361.9398,-459.0393"/>
<polygon fill="#1bdf05" stroke="#1bdf05" points="365.3755,-459.7282 364.4232,-449.1763 358.5873,-458.0189 365.3755,-459.7282"/>
<text text-anchor="middle" x="365" y="-503.8" font-family="Times,serif" font-size="14.00" fill="#000000">5.8.*</text>
</g>
<!-- psr__container -->
<g id="node10" class="node">
<title>psr__container</title>
<g id="a_node10"><a xlink:href="https://packagist.org/packages/psr/container#1.0.0" xlink:title="container@1.0.0">
<ellipse fill="none" stroke="#8e0501" cx="140" cy="-107" rx="69.5877" ry="18"/>
<text text-anchor="middle" x="140" y="-103.3" font-family="Times,serif" font-size="14.00" fill="#000000">container@1.0.0</text>
</a>
</g>
</g>
<!-- illuminate__container&#45;&gt;psr__container -->
<g id="edge8" class="edge">
<title>illuminate__container&#45;&gt;psr__container</title>
<path fill="none" stroke="#1bdf05" d="M279.6661,-557.0639C261.3698,-552.794 240.8231,-548.0924 222,-544 182.1176,-535.329 42,-548.3141 42,-507.5 42,-507.5 42,-507.5 42,-215 42,-177.9893 73.9536,-148.0316 101.3689,-129.1399"/>
<polygon fill="#1bdf05" stroke="#1bdf05" points="103.6467,-131.8302 110.0643,-123.4002 99.7904,-125.9882 103.6467,-131.8302"/>
<text text-anchor="middle" x="54.5" y="-383.8" font-family="Times,serif" font-size="14.00" fill="#000000">^1.0</text>
</g>
<!-- illuminate__contracts&#45;&gt;psr__container -->
<g id="edge9" class="edge">
<title>illuminate__contracts&#45;&gt;psr__container</title>
<path fill="none" stroke="#d04158" d="M283.9045,-197.8871C254.4647,-179.2935 207.3286,-149.5233 175.0805,-129.1561"/>
<polygon fill="#d04158" stroke="#d04158" points="176.7307,-126.0587 166.4068,-123.678 172.9927,-131.9772 176.7307,-126.0587"/>
<text text-anchor="middle" x="262.5" y="-167.8" font-family="Times,serif" font-size="14.00" fill="#000000">^1.0</text>
</g>
<!-- psr__simple_cache -->
<g id="node11" class="node">
<title>psr__simple_cache</title>
<g id="a_node11"><a xlink:href="https://packagist.org/packages/psr/simple-cache#1.0.1" xlink:title="simple&#45;cache@1.0.1">
<ellipse fill="none" stroke="#01186e" cx="311" cy="-107" rx="83.3857" ry="18"/>
<text text-anchor="middle" x="311" y="-103.3" font-family="Times,serif" font-size="14.00" fill="#000000">simple&#45;cache@1.0.1</text>
</a>
</g>
</g>
<!-- illuminate__contracts&#45;&gt;psr__simple_cache -->
<g id="edge10" class="edge">
<title>illuminate__contracts&#45;&gt;psr__simple_cache</title>
<path fill="none" stroke="#d04158" d="M311,-196.6793C311,-179.821 311,-154.5651 311,-135.147"/>
<polygon fill="#d04158" stroke="#d04158" points="314.5001,-135.0501 311,-125.0502 307.5001,-135.0502 314.5001,-135.0501"/>
<text text-anchor="middle" x="323.5" y="-167.8" font-family="Times,serif" font-size="14.00" fill="#000000">^1.0</text>
</g>
<!-- illuminate__support&#45;&gt;doctrine__inflector -->
<g id="edge11" class="edge">
<title>illuminate__support&#45;&gt;doctrine__inflector</title>
<path fill="none" stroke="#e3f048" d="M327.3726,-416.2855C297.5158,-405.254 256.6182,-389.1581 222,-372 206.0032,-364.0714 188.9592,-354.1457 174.5778,-345.3048"/>
<polygon fill="#e3f048" stroke="#e3f048" points="176.3403,-342.2792 166.0006,-339.9678 172.6421,-348.2226 176.3403,-342.2792"/>
<text text-anchor="middle" x="281.5" y="-383.8" font-family="Times,serif" font-size="14.00" fill="#000000">^1.1</text>
</g>
<!-- illuminate__support&#45;&gt;illuminate__contracts -->
<g id="edge12" class="edge">
<title>illuminate__support&#45;&gt;illuminate__contracts</title>
<path fill="none" stroke="#e3f048" d="M364.1547,-412.9555C354.0261,-375.235 330.5532,-287.8188 318.4755,-242.8399"/>
<polygon fill="#e3f048" stroke="#e3f048" points="321.8459,-241.8953 315.8723,-233.1451 315.0854,-243.7106 321.8459,-241.8953"/>
<text text-anchor="middle" x="367" y="-319.3" font-family="Times,serif" font-size="14.00" fill="#000000">5.8.*</text>
</g>
<!-- illuminate__support&#45;&gt;nesbot__carbon -->
<g id="edge13" class="edge">
<title>illuminate__support&#45;&gt;nesbot__carbon</title>
<path fill="none" stroke="#e3f048" d="M387.0832,-413.4409C398.8619,-402.7116 414.9703,-389.3098 431,-380 439.6367,-374.984 443.0744,-376.4818 452,-372 467.2168,-364.3591 483.2264,-354.4989 496.6819,-345.629"/>
<polygon fill="#e3f048" stroke="#e3f048" points="498.7605,-348.4494 505.1213,-339.9765 494.865,-342.6334 498.7605,-348.4494"/>
<text text-anchor="middle" x="470.5" y="-383.8" font-family="Times,serif" font-size="14.00" fill="#000000">^1.26.3 || ^2.0</text>
</g>
<!-- symfony__translation -->
<g id="node14" class="node">
<title>symfony__translation</title>
<g id="a_node14"><a xlink:href="https://packagist.org/packages/symfony/translation#v4.3.0" xlink:title="translation@v4.3.0">
<ellipse fill="none" stroke="#edca00" cx="555" cy="-215" rx="77.9862" ry="18"/>
<text text-anchor="middle" x="555" y="-211.3" font-family="Times,serif" font-size="14.00" fill="#000000">translation@v4.3.0</text>
</a>
</g>
</g>
<!-- nesbot__carbon&#45;&gt;symfony__translation -->
<g id="edge4" class="edge">
<title>nesbot__carbon&#45;&gt;symfony__translation</title>
<path fill="none" stroke="#7b4e80" d="M533.4105,-304.6793C537.4878,-287.7429 543.6055,-262.3311 548.2887,-242.8777"/>
<polygon fill="#7b4e80" stroke="#7b4e80" points="551.7168,-243.5916 550.6546,-233.0502 544.9112,-241.9532 551.7168,-243.5916"/>
<text text-anchor="middle" x="572" y="-275.8" font-family="Times,serif" font-size="14.00" fill="#000000">^3.4 || ^4.0</text>
</g>
<!-- symfony__polyfill_mbstring -->
<g id="node12" class="node">
<title>symfony__polyfill_mbstring</title>
<g id="a_node12"><a xlink:href="https://packagist.org/packages/symfony/polyfill-mbstring#v1.11.0" xlink:title="polyfill&#45;mbstring@v1.11.0">
<ellipse fill="none" stroke="#30af36" cx="569" cy="-34" rx="105.0817" ry="18"/>
<text text-anchor="middle" x="569" y="-30.3" font-family="Times,serif" font-size="14.00" fill="#000000">polyfill&#45;mbstring@v1.11.0</text>
</a>
</g>
</g>
<!-- symfony__translation&#45;&gt;symfony__polyfill_mbstring -->
<g id="edge14" class="edge">
<title>symfony__translation&#45;&gt;symfony__polyfill_mbstring</title>
<path fill="none" stroke="#edca00" d="M556.3936,-196.9833C558.8297,-165.4877 563.8803,-100.1909 566.7951,-62.5061"/>
<polygon fill="#edca00" stroke="#edca00" points="570.3096,-62.4526 567.5913,-52.2125 563.3305,-61.9127 570.3096,-62.4526"/>
<text text-anchor="middle" x="577.5" y="-103.3" font-family="Times,serif" font-size="14.00" fill="#000000">~1.0</text>
</g>
<!-- symfony__translation_contracts -->
<g id="node15" class="node">
<title>symfony__translation_contracts</title>
<g id="a_node15"><a xlink:href="https://packagist.org/packages/symfony/translation-contracts#v1.1.2" xlink:title="translation&#45;contracts@v1.1.2">
<ellipse fill="none" stroke="#1fa1aa" cx="805" cy="-34" rx="112.3801" ry="18"/>
<text text-anchor="middle" x="805" y="-30.3" font-family="Times,serif" font-size="14.00" fill="#000000">translation&#45;contracts@v1.1.2</text>
</a>
</g>
</g>
<!-- symfony__translation&#45;&gt;symfony__translation_contracts -->
<g id="edge15" class="edge">
<title>symfony__translation&#45;&gt;symfony__translation_contracts</title>
<path fill="none" stroke="#edca00" d="M578.9711,-197.645C623.912,-165.1077 720.8918,-94.8944 771.9781,-57.9079"/>
<polygon fill="#edca00" stroke="#edca00" points="774.3171,-60.5355 780.3646,-51.8361 770.212,-54.8655 774.3171,-60.5355"/>
<text text-anchor="middle" x="753.5" y="-103.3" font-family="Times,serif" font-size="14.00" fill="#000000">^1.1.2</text>
</g>
</g>
</svg>
